<?xml version="1.0" encoding="utf-8"?>
<svg xmlns="http://www.w3.org/2000/svg"
	xmlns:xlink="http://www.w3.org/1999/xlink"
	width="115px" height="170px" viewBox="0 0 115 170">
<rect x="0" y="0" width="115" height="170" fill="rgb(240,240,240)"/><path fillRule="evenodd" d="M 72.2 89.29C 72.2 89.29 71.89 87.2 71.89 87.2 73.83 86.91 76.16 85.02 76.45 83.84 76.39 83.1 76.2 82.26 76 81.37 75.63 79.71 75.21 77.84 75.44 75.91 75.44 75.91 77.54 76.15 77.54 76.15 77.36 77.72 77.72 79.34 78.07 80.91 78.31 81.93 78.52 82.91 78.58 83.84 78.58 83.84 78.57 84.06 78.57 84.06 78.2 86.43 74.76 88.91 72.2 89.29ZM 82.75 57.31C 82.75 57.31 82.87 57.07 82.87 57.07 82.87 57.07 82.86 56.81 82.86 56.81 82.85 56.44 82.62 47.82 79.34 43.1 77.7 40.74 75.13 40.47 73.07 40.25 70.43 39.97 68.84 39.8 68.54 36.59 68.54 36.59 68.48 36.02 68.48 36.02 68.48 36.02 67.98 35.76 67.98 35.76 60.6 31.85 52.69 30.95 45.71 33.23 40.99 34.76 36.99 37.71 35.52 40.74 35.52 40.74 35.42 40.95 35.42 40.95 35.42 40.95 35.42 41.19 35.42 41.19 35.36 45.76 34.29 47.57 30.99 51.97 30.99 51.97 30.83 52.19 30.83 52.19 30.83 52.19 30.79 52.47 30.79 52.47 29.33 64.01 35.14 68.96 35.39 69.17 35.39 69.17 36.75 67.55 36.75 67.55 36.54 67.37 31.67 63.14 32.86 53 36.14 48.6 37.43 46.36 37.53 41.46 38.64 39.41 41.75 36.74 46.37 35.23 50.83 33.78 57.92 32.99 66.49 37.37 67.15 41.75 70.3 42.08 72.85 42.35 74.81 42.56 76.51 42.73 77.59 44.3 80.22 48.08 80.67 55.17 80.73 56.6 80.12 57.84 77.49 63.39 76.21 69.5 76.21 69.5 78.28 69.93 78.28 69.93 79.65 63.42 82.72 57.37 82.75 57.31ZM 41.34 92.23C 41.34 92.23 43.37 90.9 43.37 90.9 43.37 90.9 42.2 89.14 42.2 89.14 42.2 89.14 40.59 90.19 40.59 90.19 40.12 89.99 39.29 89.53 38.75 88.51 38.76 88.49 38.77 88.47 38.78 88.46 39.5 87.19 40.38 85.61 40.08 79.15 40.08 79.15 37.96 79.24 37.96 79.24 38.23 85.1 37.51 86.39 36.93 87.43 36.82 87.62 36.72 87.81 36.62 88.01 36.62 88.01 36.58 88.85 36.58 88.85 37.72 91.8 40.43 92.36 40.55 92.38 40.55 92.38 41.34 92.23 41.34 92.23ZM 72.67 110.04C 72.84 109.38 73 108.66 73.14 107.91 73.14 107.91 73.33 106.87 73.33 106.87 73.33 106.87 71.24 106.48 71.24 106.48 71.24 106.48 71.05 107.52 71.05 107.52 70.92 108.23 70.77 108.9 70.61 109.51 69.01 115.67 64.43 123.82 61.35 128.88 61.23 125.41 59.78 120.71 54.48 115.62 51.88 113.11 49.74 110.24 48.13 107.08 48.13 107.08 47.65 106.14 47.65 106.14 47.65 106.14 45.76 107.1 45.76 107.1 45.76 107.1 46.24 108.04 46.24 108.04 47.96 111.41 50.23 114.47 53.01 117.13 62.28 126.06 58.49 133.34 58.33 133.64 58.33 133.64 60.14 134.74 60.14 134.74 60.54 134.14 70.09 119.95 72.67 110.04ZM 66.69 135.29C 66.69 135.29 66.79 135.27 66.79 135.27 79.98 132.41 88.46 125.12 93.25 119.51 98.45 113.42 100.5 108.06 100.59 107.83 100.59 107.83 101 106.74 101 106.74 101 106.74 83.17 96.86 83.17 96.86 83.17 96.86 81.09 96.74 81.09 96.74 80.26 94.17 77.52 87.51 71.31 86.96 71.31 86.96 71.07 89.66 71.07 89.66 76.65 90.16 78.7 98.27 78.72 98.35 78.72 98.35 78.96 99.33 78.96 99.33 78.96 99.33 82.39 99.53 82.39 99.53 82.39 99.53 97.57 107.94 97.57 107.94 95.57 112.22 86.88 128.11 66.25 132.61 50.51 134.87 38.07 131.61 29.29 122.93 23.72 117.43 21.46 111.35 20.88 109.58 21.22 109.21 22.11 108.55 24.3 108.42 24.3 108.42 24.87 108.38 24.87 108.38 24.87 108.38 25.24 107.96 25.24 107.96 30.21 102.36 35.8 100.77 40.73 99.38 40.73 99.38 41.65 99.12 41.65 99.12 41.65 99.12 41.82 98.32 41.82 98.32 42.22 96.45 44.37 94 45.16 93.22 45.16 93.22 44.2 92.26 44.2 92.26 44.2 92.26 45.16 93.22 45.16 93.22 45.16 93.22 43.24 91.29 43.24 91.29 42.92 91.6 40.33 94.21 39.38 96.94 34.57 98.31 28.75 100.12 23.57 105.76 18.97 106.23 18.17 108.77 18.09 109.07 18.09 109.07 18 109.42 18 109.42 18 109.42 18.09 109.76 18.09 109.76 18.17 110.08 20.22 117.74 27.27 124.76 32.7 130.17 42.06 136 57.18 136 60.13 136 63.3 135.78 66.69 135.29ZM 45.98 111.41C 45.99 111.39 47 108.66 50.89 104.01 50.89 104.01 50.66 102.45 50.66 102.45 49.37 101.61 47.06 96.69 45.83 93.47 45.83 93.47 43.85 94.22 43.85 94.22 44.32 95.45 46.52 101.05 48.63 103.43 46.46 106.11 45.24 108.15 44.6 109.38 43.41 108.13 41.4 105.1 41.02 98.6 41.02 98.6 38.9 98.73 38.9 98.73 39.53 109.36 44.3 111.89 44.5 112 44.5 112 45.98 111.41 45.98 111.41ZM 78.68 103.25C 78.86 100.65 79.03 99.59 81.26 99.2 81.26 99.2 80.9 97.12 80.9 97.12 76.94 97.8 76.74 100.62 76.56 103.1 76.41 105.31 76.24 107.58 74.1 109.64 73.77 107.78 72.85 106.05 71.41 103.41 73.47 99.23 74.07 90.32 74.1 89.93 74.1 89.93 71.98 89.79 71.98 89.79 71.97 89.89 71.33 99.42 69.29 102.89 69.29 102.89 69.27 103.93 69.27 103.93 71.46 107.91 72.21 109.4 72.11 111.65 72.11 111.65 73.75 112.58 73.75 112.58 78.22 109.67 78.49 105.96 78.68 103.25ZM 72.84 88.45C 72.84 88.45 72.88 88.32 72.88 88.32 73.49 86.07 73.99 81.57 74.16 79.92 75.2 79.42 77.15 78.23 77.53 76.22 77.69 75.4 77.74 74.56 77.79 73.66 77.88 72.16 77.97 70.62 78.57 69.06 79.07 67.75 80.11 64.54 78.83 63.15 78.54 62.83 77.88 62.34 76.75 62.66 76.08 62.85 75.43 63.17 74.87 63.53 75.02 61.95 75.16 59.82 75.14 57.65 75.09 51.41 73.72 48.16 70.98 47.72 67.13 47.09 64.82 47.74 62.37 48.43 61.42 48.7 60.43 48.98 59.31 49.19 55.19 49.94 50.13 49.48 44.66 47.86 42.86 47.33 41.34 47.53 40.14 48.46 37.52 50.49 37.63 55.15 37.65 55.68 37.65 55.68 38.05 65.49 38.05 65.49 36.85 65.76 35.2 66.39 35.13 67.86 35.13 67.95 35.11 77.64 38 80.4 38.36 80.74 38.76 80.98 39.18 81.1 39.34 81.82 39.49 82.57 39.65 83.35 40.37 86.91 41.11 90.59 43.44 92.99 44.77 94.36 51.67 101.19 57.14 101.43 57.22 101.44 57.3 101.44 57.38 101.44 62.35 101.44 70.2 94.87 72.84 88.45ZM 39.47 78.88C 37.74 77.22 37.2 69.89 37.25 68.04 37.5 67.81 38.44 67.52 39.26 67.42 39.26 67.42 40.2 66.33 40.2 66.33 40.2 66.33 39.77 55.6 39.77 55.6 39.73 54.47 39.95 51.28 41.44 50.13 42.08 49.63 42.94 49.55 44.05 49.89 49.84 51.6 55.25 52.08 59.69 51.26 60.91 51.04 61.95 50.75 62.95 50.46 65.26 49.81 67.25 49.25 70.64 49.8 73.42 50.25 73.38 59.6 72.47 65.78 72.47 65.78 74.28 66.67 74.28 66.67 74.69 66.25 76.02 65.08 77.3 64.7 77.4 65.17 77.29 66.47 76.59 68.3 75.87 70.17 75.76 71.96 75.67 73.54 75.62 74.37 75.58 75.15 75.45 75.83 75.21 77.06 73.45 77.97 72.79 78.21 72.79 78.21 72.1 79.1 72.1 79.1 72.1 79.16 71.53 85.11 70.85 87.71 68.32 93.78 60.93 99.47 57.24 99.32 53.61 99.16 48.36 95.02 44.97 91.52 43.07 89.56 42.39 86.19 41.73 82.93 41.53 81.92 41.32 80.87 41.07 79.89 41.07 79.89 39.95 79.1 39.95 79.1 39.88 79.1 39.72 79.12 39.47 78.88ZM 54.36 125.91C 53.67 125.91 53.11 126.77 53.11 127.84 53.11 128.91 53.67 129.78 54.36 129.78 55.05 129.78 55.6 128.91 55.6 127.84 55.6 126.77 55.05 125.91 54.36 125.91ZM 56.06 127.84C 56.06 126.5 55.31 125.45 54.36 125.45 53.41 125.45 52.66 126.5 52.66 127.84 52.66 129.18 53.41 130.23 54.36 130.23 55.31 130.23 56.06 129.18 56.06 127.84ZM 55.15 127.84C 55.15 128.69 54.73 129.32 54.36 129.32 53.99 129.32 53.57 128.69 53.57 127.84 53.57 126.99 53.99 126.36 54.36 126.36 54.73 126.36 55.15 126.99 55.15 127.84Z" fill="rgb(201,201,201)"/></svg>